<svg width="24" height="24" viewBox="0 0 24 24" fill="none" xmlns="http://www.w3.org/2000/svg">
<path fill-rule="evenodd" clip-rule="evenodd" d="M9.17157 4.17157C9.92172 3.42143 10.9391 3 12 3C13.0609 3 14.0783 3.42143 14.8284 4.17157C15.5786 4.92172 16 5.93913 16 7V10H8V7C8 5.93913 8.42143 4.92172 9.17157 4.17157ZM6 10V7C6 5.4087 6.63214 3.88258 7.75736 2.75736C8.88258 1.63214 10.4087 1 12 1C13.5913 1 15.1174 1.63214 16.2426 2.75736C17.3679 3.88258 18 5.4087 18 7V10H19C20.6569 10 22 11.3431 22 13V20C22 21.6569 20.6569 23 19 23H5C3.34315 23 2 21.6569 2 20V13C2 11.3431 3.34315 10 5 10H6ZM17 12H19C19.5523 12 20 12.4477 20 13V20C20 20.5523 19.5523 21 19 21H5C4.44772 21 4 20.5523 4 20V13C4 12.4477 4.44772 12 5 12H7H17ZM11 16C11 15.4477 11.4477 15 12 15H12.01C12.5623 15 13.01 15.4477 13.01 16C13.01 16.5523 12.5623 17 12.01 17H12C11.4477 17 11 16.5523 11 16Z" fill="black"/>
</svg>
